<svg width="48" height="49" viewBox="0 0 48 49" fill="none" xmlns="http://www.w3.org/2000/svg">
<g clip-path="url(#clip0_899_1418)">
<path d="M48 29.2631H44.5714H42.8571H38.3349L38.43 27.4237C38.5106 25.8585 37.9731 24.3851 36.9171 23.2734C35.8603 22.1617 34.416 21.5488 32.8483 21.5488H32.2946C30.7269 21.5488 29.2817 22.1608 28.2257 23.2734C27.1706 24.3843 26.6331 25.8594 26.7129 27.4237L26.808 29.2631H21.192L21.2871 27.4237C21.3677 25.8585 20.8303 24.3851 19.7743 23.2734C18.7174 22.1617 17.2731 21.5488 15.7054 21.5488H15.1517C13.584 21.5488 12.1389 22.1608 11.0829 23.2734C10.0277 24.3843 9.49029 25.8594 9.57 27.4237L9.66514 29.2631H5.14286H3.42857H0V30.9774H3.42857V46.406H5.14286V30.9774H9.75343L10.0191 36.1203H8.57143V36.9774V37.8345V46.406H10.2857V37.8345H10.9217H19.9354H20.5714V46.406H22.2857V37.8345V36.9774V36.1203H20.838L21.1037 30.9774H26.8963L27.162 36.1203H25.7143V36.9774V37.8345V46.406H27.4286V37.8345H28.0646H37.0783H37.7143V46.406H39.4286V37.8345V36.9774V36.1203H37.9809L38.2466 30.9774H42.8571V46.406H44.5714V30.9774H48V29.2631ZM11.7351 36.1203L11.2826 27.3354C11.2269 26.2443 11.5963 25.2208 12.3257 24.4528C13.0551 23.6848 14.0589 23.2623 15.1517 23.2623H15.7054C16.7983 23.2623 17.802 23.6848 18.5314 24.4528C19.2609 25.2208 19.6311 26.2434 19.5746 27.3345L19.122 36.1203H11.7351ZM28.878 36.1203L28.4254 27.3354C28.3697 26.2443 28.7391 25.2208 29.4686 24.4528C30.198 23.6848 31.2017 23.2623 32.2946 23.2623H32.8483C33.9411 23.2623 34.9449 23.6848 35.6743 24.4528C36.4037 25.2208 36.774 26.2434 36.7174 27.3345L36.2649 36.1203H28.878Z" fill="#035B8D"/>
<path d="M23.5714 17.2628C27.5888 17.2628 30.8571 13.9945 30.8571 9.97712C30.8571 5.95969 27.5888 2.69141 23.5714 2.69141C19.5539 2.69141 16.2856 5.95969 16.2856 9.97712C16.2856 13.9945 19.5539 17.2628 23.5714 17.2628ZM23.5714 4.40569C26.6434 4.40569 29.1428 6.90512 29.1428 9.97712C29.1428 13.0491 26.6434 15.5485 23.5714 15.5485C20.4994 15.5485 17.9999 13.0491 17.9999 9.97712C17.9999 6.90512 20.4994 4.40569 23.5714 4.40569Z" fill="#035B8D"/>
<path d="M22.9313 9.69135L21.5418 12.1231C21.307 12.5336 21.4501 13.0573 21.8607 13.2922C21.9944 13.3693 22.141 13.4053 22.285 13.4053C22.5833 13.4053 22.8721 13.2502 23.0298 12.9733L24.7441 9.97335C24.9361 9.63735 24.8795 9.21563 24.6061 8.94221L22.8918 7.22792C22.5567 6.89278 22.015 6.89278 21.6798 7.22792C21.3447 7.56306 21.3447 8.10478 21.6798 8.43992L22.9313 9.69135Z" fill="#035B8D"/>
</g>
<defs>
<clipPath id="clip0_899_1418">
<rect width="48" height="48" fill="white" transform="translate(0 0.548828)"/>
</clipPath>
</defs>
</svg>
