<svg width="48" height="49" viewBox="0 0 48 49" fill="none" xmlns="http://www.w3.org/2000/svg">
<g clip-path="url(#clip0_899_1242)">
<path d="M1.50513 22.2832V48.5486H2.97747V23.7556H15.0205V48.5486H16.4929V22.2832H1.50513Z" fill="#035B8D"/>
<path d="M33.01 17.0127H31.5376V48.5484H33.01V17.0127Z" fill="#035B8D"/>
<path d="M12.0408 0.548828V21.555H13.5133V2.02127H31.4765V4.96596H32.9488V0.548828H12.0408Z" fill="#035B8D"/>
<path d="M33.7341 22.2422V23.7146H45.0224V48.549H46.4948V22.2422H33.7341Z" fill="#035B8D"/>
<path d="M25.5327 5.76465V9.19928L23.7261 11.0059L25.5327 12.8126V16.2474H45.0257V5.76465H25.5327ZM43.5533 14.7749H27.0051V12.2028L25.8084 11.006L27.0051 9.80922V7.23709H43.5533V14.7749Z" fill="#035B8D"/>
<path d="M23.2315 9.48145H21.759V12.5244H23.2315V9.48145Z" fill="#035B8D"/>
<path d="M20.1885 9.48145H18.7161V12.5244H20.1885V9.48145Z" fill="#035B8D"/>
<path d="M17.2436 9.48145H15.7712V12.5244H17.2436V9.48145Z" fill="#035B8D"/>
<path d="M23.2315 14.7822H21.759V17.727H23.2315V14.7822Z" fill="#035B8D"/>
<path d="M20.1885 14.7822H18.7161V17.727H20.1885V14.7822Z" fill="#035B8D"/>
<path d="M17.2436 14.7822H15.7712V17.727H17.2436V14.7822Z" fill="#035B8D"/>
<path d="M23.2315 19.9844H21.759V23.0273H23.2315V19.9844Z" fill="#035B8D"/>
<path d="M26.2744 19.9844H24.802V23.0273H26.2744V19.9844Z" fill="#035B8D"/>
<path d="M29.219 19.9844H27.7466V23.0273H29.219V19.9844Z" fill="#035B8D"/>
<path d="M20.1885 19.9844H18.7161V23.0273H20.1885V19.9844Z" fill="#035B8D"/>
<path d="M23.2315 25.2852H21.759V28.2299H23.2315V25.2852Z" fill="#035B8D"/>
<path d="M26.2744 25.2852H24.802V28.2299H26.2744V25.2852Z" fill="#035B8D"/>
<path d="M29.219 25.2852H27.7466V28.2299H29.219V25.2852Z" fill="#035B8D"/>
<path d="M20.1885 25.2852H18.7161V28.2299H20.1885V25.2852Z" fill="#035B8D"/>
<path d="M23.2315 30.4873H21.759V33.5302H23.2315V30.4873Z" fill="#035B8D"/>
<path d="M26.2744 30.4873H24.802V33.5302H26.2744V30.4873Z" fill="#035B8D"/>
<path d="M29.219 30.4873H27.7466V33.5302H29.219V30.4873Z" fill="#035B8D"/>
<path d="M20.1885 30.4873H18.7161V33.5302H20.1885V30.4873Z" fill="#035B8D"/>
<path d="M23.2315 35.7881H21.759V38.831H23.2315V35.7881Z" fill="#035B8D"/>
<path d="M26.2744 35.7881H24.802V38.831H26.2744V35.7881Z" fill="#035B8D"/>
<path d="M29.219 35.7881H27.7466V38.831H29.219V35.7881Z" fill="#035B8D"/>
<path d="M20.1885 35.7881H18.7161V38.831H20.1885V35.7881Z" fill="#035B8D"/>
<path d="M23.2315 41.0889H21.759V44.0337H23.2315V41.0889Z" fill="#035B8D"/>
<path d="M26.2744 41.0889H24.802V44.0337H26.2744V41.0889Z" fill="#035B8D"/>
<path d="M29.219 41.0889H27.7466V44.0337H29.219V41.0889Z" fill="#035B8D"/>
<path d="M20.1885 41.0889H18.7161V44.0337H20.1885V41.0889Z" fill="#035B8D"/>
<path d="M23.2315 46.291H21.759V48.5487H23.2315V46.291Z" fill="#035B8D"/>
<path d="M26.2744 46.291H24.802V48.5487H26.2744V46.291Z" fill="#035B8D"/>
<path d="M29.219 46.291H27.7466V48.5487H29.219V46.291Z" fill="#035B8D"/>
<path d="M20.1885 46.291H18.7161V48.5487H20.1885V46.291Z" fill="#035B8D"/>
<path d="M17.2436 19.9844H15.7712V21.555H17.2436V19.9844Z" fill="#035B8D"/>
<path d="M23.2315 4.2793H21.759V7.22408H23.2315V4.2793Z" fill="#035B8D"/>
<path d="M20.1885 4.2793H18.7161V7.22408H20.1885V4.2793Z" fill="#035B8D"/>
<path d="M17.2436 4.2793H15.7712V7.22408H17.2436V4.2793Z" fill="#035B8D"/>
<path d="M30.1658 10.6028C29.7472 10.4453 29.575 10.3419 29.575 10.1794C29.575 10.0416 29.6784 9.9037 29.9983 9.9037C30.3529 9.9037 30.5792 10.0169 30.7074 10.071L30.8501 9.51473C30.6876 9.43588 30.4661 9.36698 30.1361 9.35226V8.91895H29.6537V9.38666C29.1269 9.49016 28.8216 9.82973 28.8216 10.263C28.8216 10.7406 29.1809 10.9868 29.7079 11.1641C30.0721 11.2872 30.2297 11.4054 30.2297 11.5923C30.2299 11.7892 30.0379 11.8974 29.7573 11.8974C29.4373 11.8974 29.1469 11.794 28.94 11.6808L28.7922 12.2568C28.9793 12.3652 29.2993 12.4537 29.6291 12.4684V12.9361H30.1116V12.434C30.6776 12.3355 30.988 11.9613 30.988 11.5232C30.988 11.0804 30.7516 10.8096 30.1658 10.6028Z" fill="#035B8D"/>
<path d="M32.519 9.30762L31.6724 9.70137L31.7954 10.2626L32.4058 9.97221H32.4157V12.5077H33.1395V9.30762H32.519Z" fill="#035B8D"/>
<path d="M36.0684 10.6369C35.8418 10.4745 35.5318 10.4056 35.2267 10.4056C35.1478 10.4056 35.0887 10.4056 35.0198 10.4155L35.0887 9.92309H36.3295V9.30762H34.5669L34.3553 10.9865C34.4883 10.9669 34.6114 10.957 34.7887 10.957C35.4287 10.957 35.6896 11.1589 35.6896 11.4887C35.6896 11.8284 35.3598 11.976 35.0496 11.976C34.759 11.976 34.4686 11.8875 34.3258 11.8186L34.1929 12.3799C34.3702 12.4734 34.6951 12.562 35.084 12.562C35.9454 12.562 36.4574 12.0353 36.4574 11.4394C36.4573 11.0653 36.3098 10.7993 36.0684 10.6369Z" fill="#035B8D"/>
<path d="M38.0968 9.25293C37.2697 9.25293 36.8757 9.98662 36.8757 10.9121C36.8807 11.818 37.245 12.5614 38.0722 12.5614C38.8894 12.5614 39.2883 11.8819 39.2883 10.8923C39.2883 10.016 38.9534 9.25293 38.0968 9.25293ZM38.0918 11.9952C37.8013 11.9952 37.624 11.6455 37.6289 10.9121C37.624 10.1687 37.8112 9.81909 38.0868 9.81909C38.3872 9.81909 38.5397 10.1932 38.5397 10.9022C38.5398 11.6308 38.3823 11.9952 38.0918 11.9952Z" fill="#035B8D"/>
<path d="M40.8292 9.25293C40.002 9.25293 39.6082 9.98662 39.6082 10.9121C39.613 11.818 39.9773 12.5614 40.8045 12.5614C41.6217 12.5614 42.0206 11.8819 42.0206 10.8923C42.0206 10.016 41.6858 9.25293 40.8292 9.25293ZM40.8242 11.9952C40.5338 11.9952 40.3565 11.6455 40.3613 10.9121C40.3565 10.1687 40.5436 9.81909 40.8192 9.81909C41.1195 9.81909 41.2721 10.1932 41.2721 10.9022C41.2721 11.6308 41.1146 11.9952 40.8242 11.9952Z" fill="#035B8D"/>
<path d="M13.5133 26.0703H4.48267V27.5428H13.5133V26.0703Z" fill="#035B8D"/>
<path d="M13.5133 29.8008H4.48267V31.2732H13.5133V29.8008Z" fill="#035B8D"/>
<path d="M13.5133 33.5303H4.48267V35.0026H13.5133V33.5303Z" fill="#035B8D"/>
<path d="M13.5133 37.2607H4.48267V38.7331H13.5133V37.2607Z" fill="#035B8D"/>
<path d="M13.5133 41.0889H4.48267V42.5613H13.5133V41.0889Z" fill="#035B8D"/>
<path d="M13.5133 44.8184H4.48267V46.2908H13.5133V44.8184Z" fill="#035B8D"/>
<path d="M43.5504 26.0703H34.5198V27.5428H43.5504V26.0703Z" fill="#035B8D"/>
<path d="M43.5504 29.8008H34.5198V31.2732H43.5504V29.8008Z" fill="#035B8D"/>
<path d="M43.5504 33.5303H34.5198V35.0026H43.5504V33.5303Z" fill="#035B8D"/>
<path d="M43.5504 37.2607H34.5198V38.7331H43.5504V37.2607Z" fill="#035B8D"/>
<path d="M43.5504 41.0889H34.5198V42.5613H43.5504V41.0889Z" fill="#035B8D"/>
<path d="M43.5504 44.8184H34.5198V46.2908H43.5504V44.8184Z" fill="#035B8D"/>
</g>
<defs>
<clipPath id="clip0_899_1242">
<rect width="48" height="48" fill="white" transform="translate(0 0.548828)"/>
</clipPath>
</defs>
</svg>
