<svg width="56" height="57" viewBox="0 0 56 57" fill="none" xmlns="http://www.w3.org/2000/svg">
<path d="M28 24.4492C30.4278 24.4492 32.396 22.4811 32.396 20.0532C32.396 17.6254 30.4278 15.6572 28 15.6572C25.5722 15.6572 23.604 17.6254 23.604 20.0532C23.604 22.4811 25.5722 24.4492 28 24.4492Z" stroke="#035B8D" stroke-linecap="round" stroke-linejoin="round"/>
<path d="M31.0799 19.51V20.5964C31.0806 20.6476 31.0712 20.6984 31.0521 20.7459C31.033 20.7935 31.0047 20.8367 30.9687 20.8732C30.9328 20.9097 30.8899 20.9386 30.8427 20.9584C30.7954 20.9782 30.7447 20.9884 30.6935 20.9884H28.9351V22.7468C28.9351 22.8507 28.8938 22.9504 28.8203 23.0239C28.7468 23.0975 28.6471 23.1388 28.5431 23.1388H27.4399C27.3359 23.1388 27.2362 23.0975 27.1627 23.0239C27.0892 22.9504 27.0479 22.8507 27.0479 22.7468V20.9884H25.3063C25.2023 20.9884 25.1026 20.9471 25.0291 20.8735C24.9556 20.8 24.9143 20.7003 24.9143 20.5964V19.51C24.9143 19.4585 24.9244 19.4075 24.9441 19.3599C24.9638 19.3124 24.9927 19.2692 25.0291 19.2328C25.0655 19.1964 25.1087 19.1675 25.1563 19.1478C25.2039 19.1281 25.2548 19.118 25.3063 19.118H27.0647V17.3484C27.0647 17.2971 27.0749 17.2464 27.0946 17.1992C27.1144 17.1519 27.1434 17.1091 27.1799 17.0731C27.2163 17.0372 27.2596 17.0088 27.3071 16.9897C27.3546 16.9707 27.4055 16.9612 27.4567 16.962H28.5599C28.6111 16.9612 28.662 16.9707 28.7095 16.9897C28.757 17.0088 28.8003 17.0372 28.8368 17.0731C28.8732 17.1091 28.9022 17.1519 28.922 17.1992C28.9417 17.2464 28.9519 17.2971 28.9519 17.3484V19.1068H30.7103C30.7611 19.1089 30.8109 19.1211 30.857 19.1425C30.903 19.1639 30.9444 19.1943 30.9787 19.2317C31.0131 19.2692 31.0397 19.313 31.057 19.3608C31.0744 19.4085 31.0822 19.4592 31.0799 19.51Z" stroke="#035B8D" stroke-linecap="round" stroke-linejoin="round"/>
<path d="M28.0449 10.0967L38.8081 18.7823V42.4871" stroke="#035B8D" stroke-linecap="round" stroke-linejoin="round"/>
<path d="M47.2025 26.2861H38.8025V42.4869H47.2025V26.2861Z" stroke="#035B8D" stroke-linecap="round" stroke-linejoin="round"/>
<path d="M31.4943 27.7646H29.2151V30.0438H31.4943V27.7646Z" stroke="#035B8D" stroke-linecap="round" stroke-linejoin="round"/>
<path d="M36.0417 27.7646H33.7625V30.0438H36.0417V27.7646Z" stroke="#035B8D" stroke-linecap="round" stroke-linejoin="round"/>
<path d="M31.4943 32.1045H29.2151V34.3837H31.4943V32.1045Z" stroke="#035B8D" stroke-linecap="round" stroke-linejoin="round"/>
<path d="M36.0417 32.1045H33.7625V34.3837H36.0417V32.1045Z" stroke="#035B8D" stroke-linecap="round" stroke-linejoin="round"/>
<path d="M36.0417 36.4502H33.7625V38.7294H36.0417V36.4502Z" stroke="#035B8D" stroke-linecap="round" stroke-linejoin="round"/>
<path d="M44.1449 36.4502H41.8657V38.7294H44.1449V36.4502Z" stroke="#035B8D" stroke-linecap="round" stroke-linejoin="round"/>
<path d="M44.1449 32.1045H41.8657V34.3837H44.1449V32.1045Z" stroke="#035B8D" stroke-linecap="round" stroke-linejoin="round"/>
<path d="M47.7401 23.1445H38.8025V26.2861H47.7401V23.1445Z" stroke="#035B8D" stroke-linecap="round" stroke-linejoin="round"/>
<path d="M27.9551 10.0967L17.1919 18.7823V42.4871" stroke="#035B8D" stroke-linecap="round" stroke-linejoin="round"/>
<path d="M47.208 42.4932H8.79761V45.814H47.208V42.4932Z" stroke="#035B8D" stroke-linecap="round" stroke-linejoin="round"/>
<path d="M17.1976 26.2861H8.79761V42.4869H17.1976V26.2861Z" stroke="#035B8D" stroke-linecap="round" stroke-linejoin="round"/>
<path d="M26.7848 27.7646H24.5056V30.0438H26.7848V27.7646Z" stroke="#035B8D" stroke-linecap="round" stroke-linejoin="round"/>
<path d="M22.2377 27.7646H19.9585V30.0438H22.2377V27.7646Z" stroke="#035B8D" stroke-linecap="round" stroke-linejoin="round"/>
<path d="M26.7848 32.1045H24.5056V34.3837H26.7848V32.1045Z" stroke="#035B8D" stroke-linecap="round" stroke-linejoin="round"/>
<path d="M22.2377 32.1045H19.9585V34.3837H22.2377V32.1045Z" stroke="#035B8D" stroke-linecap="round" stroke-linejoin="round"/>
<path d="M22.2377 36.4502H19.9585V38.7294H22.2377V36.4502Z" stroke="#035B8D" stroke-linecap="round" stroke-linejoin="round"/>
<path d="M14.1344 36.4502H11.8552V38.7294H14.1344V36.4502Z" stroke="#035B8D" stroke-linecap="round" stroke-linejoin="round"/>
<path d="M14.1344 32.1045H11.8552V34.3837H14.1344V32.1045Z" stroke="#035B8D" stroke-linecap="round" stroke-linejoin="round"/>
<path d="M17.192 23.1445H8.25439V26.2861H17.192V23.1445Z" stroke="#035B8D" stroke-linecap="round" stroke-linejoin="round"/>
<path d="M31.4888 36.4502H24.5056V42.4926H31.4888V36.4502Z" stroke="#035B8D" stroke-linecap="round" stroke-linejoin="round"/>
<path d="M27.9999 36.4502L27.9551 42.4926" stroke="#035B8D" stroke-linecap="round" stroke-linejoin="round"/>
</svg>
